<svg id="visual" viewBox="0 0 960 540" width="960" height="540"
  xmlns="http://www.w3.org/2000/svg"
  xmlns:xlink="http://www.w3.org/1999/xlink" version="1.1">

  <g transform="translate(960, 540)">
    <path d="M-486 0C-469.1 -61.3 -452.1 -122.5 -425.9 -176.4C-399.7 -230.3 -364.3 -276.9 -322.4 -322.4C-280.6 -368 -232.4 -412.6 -177.6 -428.7C-122.8 -444.8 -61.4 -432.4 0 -420L0 0Z" fill="rgba(0,0,0,0.1)"></path>
    <path d="M-243 0C-234.5 -30.6 -226.1 -61.3 -213 -88.2C-199.9 -115.2 -182.1 -138.4 -161.2 -161.2C-140.3 -184 -116.2 -206.3 -88.8 -214.3C-61.4 -222.4 -30.7 -216.2 0 -210L0 0Z" fill="rgba(0,0,0,0.01)"></path>
  </g>
  <g transform="translate(0, 0)">
    <path d="M413 0C413.5 52.8 413.9 105.5 407.4 168.8C400.9 232 387.5 305.7 343.7 343.7C299.9 381.6 225.7 383.9 163.4 394.5C101.1 405.1 50.5 424.1 0 443L0 0Z" fill="rgba(0,0,0,0.1)"></path>
    <path d="M206.5 0C206.7 26.4 207 52.8 203.7 84.4C200.5 116 193.7 152.8 171.8 171.8C149.9 190.8 112.9 191.9 81.7 197.2C50.5 202.6 25.3 212 0 221.5L0 0Z" fill="rgba(0,0,0,0.01)"></path>
  </g>
</svg>