<svg id="visual" viewBox="0 0 960 540" width="960" height="540" xmlns="http://www.w3.org/2000/svg" xmlns:xlink="http://www.w3.org/1999/xlink" version="1.1">
  <g transform="translate(960, 540)">
    <path d="M-486 0C-467.4 -60.5 -448.7 -120.9 -423.1 -175.3C-397.5 -229.6 -365 -277.8 -326 -326C-286.9 -374.2 -241.4 -422.3 -186 -449C-130.6 -475.7 -65.3 -480.8 0 -486L0 0Z" fill="transparent"></path>
    <path d="M-243 0C-233.7 -30.2 -224.4 -60.5 -211.6 -87.6C-198.8 -114.8 -182.5 -138.9 -163 -163C-143.5 -187.1 -120.7 -211.2 -93 -224.5C-65.3 -237.8 -32.6 -240.4 0 -243L0 0Z" fill="red"></path>
  </g>
  <g transform="translate(0, 0)">
    <path d="M486 0C483.7 68.1 481.5 136.3 449 186C416.5 235.7 353.8 266.9 305.5 305.5C257.1 344 223 390 174.5 421.3C126 452.6 63 469.3 0 486L0 0Z" fill="transparent"></path>
    <path d="M243 0C241.9 34.1 240.7 68.1 224.5 93C208.3 117.8 176.9 133.4 152.7 152.7C128.5 172 111.5 195 87.3 210.6C63 226.3 31.5 234.7 0 243L0 0Z" fill="red"></path>
  </g>
</svg>