<svg id="visual" viewBox="0 0 960 540" width="960" height="540"
  xmlns="http://www.w3.org/2000/svg"
  xmlns:xlink="http://www.w3.org/1999/xlink" version="1.1">
  <path d="M0 82L14.5 92.8C29 103.7 58 125.3 87.2 143.3C116.3 161.3 145.7 175.7 174.8 191.8C204 208 233 226 262 221.5C291 217 320 190 349 202.7C378 215.3 407 267.7 436.2 260.5C465.3 253.3 494.7 186.7 523.8 147C553 107.3 582 94.7 611 92.8C640 91 669 100 698 103.7C727 107.3 756 105.7 785.2 112C814.3 118.3 843.7 132.7 872.8 132.7C902 132.7 931 118.3 945.5 111.2L960 104L960 0L945.5 0C931 0 902 0 872.8 0C843.7 0 814.3 0 785.2 0C756 0 727 0 698 0C669 0 640 0 611 0C582 0 553 0 523.8 0C494.7 0 465.3 0 436.2 0C407 0 378 0 349 0C320 0 291 0 262 0C233 0 204 0 174.8 0C145.7 0 116.3 0 87.2 0C58 0 29 0 14.5 0L0 0Z" fill="rgba(0,0,0,0.02)"></path>
  <!-- <path d="M0 255L14.5 261.3C29 267.7 58 280.3 87.2 292C116.3 303.7 145.7 314.3 174.8 316C204 317.7 233 310.3 262 302.2C291 294 320 285 349 297.7C378 310.3 407 344.7 436.2 346.5C465.3 348.3 494.7 317.7 523.8 287C553 256.3 582 225.7 611 207.7C640 189.7 669 184.3 698 197C727 209.7 756 240.3 785.2 256.5C814.3 272.7 843.7 274.3 872.8 269.8C902 265.3 931 254.7 945.5 249.3L960 244L960 102L945.5 109.2C931 116.3 902 130.7 872.8 130.7C843.7 130.7 814.3 116.3 785.2 110C756 103.7 727 105.3 698 101.7C669 98 640 89 611 90.8C582 92.7 553 105.3 523.8 145C494.7 184.7 465.3 251.3 436.2 258.5C407 265.7 378 213.3 349 200.7C320 188 291 215 262 219.5C233 224 204 206 174.8 189.8C145.7 173.7 116.3 159.3 87.2 141.3C58 123.3 29 101.7 14.5 90.8L0 80Z" fill="rgba(0,0,0,0.01)"></path> -->
  <path d="M0 309L14.5 319.8C29 330.7 58 352.3 87.2 365.8C116.3 379.3 145.7 384.7 174.8 390.8C204 397 233 404 262 393.2C291 382.3 320 353.7 349 356.5C378 359.3 407 393.7 436.2 395.5C465.3 397.3 494.7 366.7 523.8 346.8C553 327 582 318 611 312.5C640 307 669 305 698 311.3C727 317.7 756 332.3 785.2 335.2C814.3 338 843.7 329 872.8 321.7C902 314.3 931 308.7 945.5 305.8L960 303L960 242L945.5 247.3C931 252.7 902 263.3 872.8 267.8C843.7 272.3 814.3 270.7 785.2 254.5C756 238.3 727 207.7 698 195C669 182.3 640 187.7 611 205.7C582 223.7 553 254.3 523.8 285C494.7 315.7 465.3 346.3 436.2 344.5C407 342.7 378 308.3 349 295.7C320 283 291 292 262 300.2C233 308.3 204 315.7 174.8 314C145.7 312.3 116.3 301.7 87.2 290C58 278.3 29 265.7 14.5 259.3L0 253Z" fill="rgba(0,0,0,0.02)"></path>
  <!-- <path d="M0 541L14.5 541C29 541 58 541 87.2 541C116.3 541 145.7 541 174.8 541C204 541 233 541 262 541C291 541 320 541 349 541C378 541 407 541 436.2 541C465.3 541 494.7 541 523.8 541C553 541 582 541 611 541C640 541 669 541 698 541C727 541 756 541 785.2 541C814.3 541 843.7 541 872.8 541C902 541 931 541 945.5 541L960 541L960 301L945.5 303.8C931 306.7 902 312.3 872.8 319.7C843.7 327 814.3 336 785.2 333.2C756 330.3 727 315.7 698 309.3C669 303 640 305 611 310.5C582 316 553 325 523.8 344.8C494.7 364.7 465.3 395.3 436.2 393.5C407 391.7 378 357.3 349 354.5C320 351.7 291 380.3 262 391.2C233 402 204 395 174.8 388.8C145.7 382.7 116.3 377.3 87.2 363.8C58 350.3 29 328.7 14.5 317.8L0 307Z" fill="transparent"></path> -->
</svg>