<svg id="visual" viewBox="0 0 960 540" width="960" height="540"
  xmlns="http://www.w3.org/2000/svg"
  xmlns:xlink="http://www.w3.org/1999/xlink" version="1.1">
  <!-- <path d="M0 55L10 55.8C20 56.7 40 58.3 60 60.2C80 62 100 64 120 72.2C140 80.3 160 94.7 180 100C200 105.3 220 101.7 240 94.5C260 87.3 280 76.7 300 74.8C320 73 340 80 360 84.5C380 89 400 91 420 90.2C440 89.3 460 85.7 480 84.7C500 83.7 520 85.3 540 87.2C560 89 580 91 600 92.8C620 94.7 640 96.3 660 96.3C680 96.3 700 94.7 720 87.5C740 80.3 760 67.7 780 66.7C800 65.7 820 76.3 840 75.5C860 74.7 880 62.3 900 65.2C920 68 940 86 950 95L960 104L960 0L950 0C940 0 920 0 900 0C880 0 860 0 840 0C820 0 800 0 780 0C760 0 740 0 720 0C700 0 680 0 660 0C640 0 620 0 600 0C580 0 560 0 540 0C520 0 500 0 480 0C460 0 440 0 420 0C400 0 380 0 360 0C340 0 320 0 300 0C280 0 260 0 240 0C220 0 200 0 180 0C160 0 140 0 120 0C100 0 80 0 60 0C40 0 20 0 10 0L0 0Z" fill="#004cbb"></path> -->
  <path d="M0 212L10 222.7C20 233.3 40 254.7 60 248.3C80 242 100 208 120 198.2C140 188.3 160 202.7 180 209C200 215.3 220 213.7 240 222.7C260 231.7 280 251.3 300 261.2C320 271 340 271 360 276.3C380 281.7 400 292.3 420 285.2C440 278 460 253 480 233.3C500 213.7 520 199.3 540 193.8C560 188.3 580 191.7 600 192.5C620 193.3 640 191.7 660 192.7C680 193.7 700 197.3 720 207.2C740 217 760 233 780 243.8C800 254.7 820 260.3 840 262.2C860 264 880 262 900 271C920 280 940 300 950 310L960 320L960 102L950 93C940 84 920 66 900 63.2C880 60.3 860 72.7 840 73.5C820 74.3 800 63.7 780 64.7C760 65.7 740 78.3 720 85.5C700 92.7 680 94.3 660 94.3C640 94.3 620 92.7 600 90.8C580 89 560 87 540 85.2C520 83.3 500 81.7 480 82.7C460 83.7 440 87.3 420 88.2C400 89 380 87 360 82.5C340 78 320 71 300 72.8C280 74.7 260 85.3 240 92.5C220 99.7 200 103.3 180 98C160 92.7 140 78.3 120 70.2C100 62 80 60 60 58.2C40 56.3 20 54.7 10 53.8L0 53Z" fill="rgba(120, 122, 237, 0.02)"></path>
  <!-- <path d="M0 282L10 290C20 298 40 314 60 309.5C80 305 100 280 120 274.7C140 269.3 160 283.7 180 289C200 294.3 220 290.7 240 298.8C260 307 280 327 300 337.8C320 348.7 340 350.3 360 352C380 353.7 400 355.3 420 348.2C440 341 460 325 480 303.5C500 282 520 255 540 246.8C560 238.7 580 249.3 600 248.3C620 247.3 640 234.7 660 235.7C680 236.7 700 251.3 720 264.8C740 278.3 760 290.7 780 303.2C800 315.7 820 328.3 840 329.3C860 330.3 880 319.7 900 324.2C920 328.7 940 348.3 950 358.2L960 368L960 318L950 308C940 298 920 278 900 269C880 260 860 262 840 260.2C820 258.3 800 252.7 780 241.8C760 231 740 215 720 205.2C700 195.3 680 191.7 660 190.7C640 189.7 620 191.3 600 190.5C580 189.7 560 186.3 540 191.8C520 197.3 500 211.7 480 231.3C460 251 440 276 420 283.2C400 290.3 380 279.7 360 274.3C340 269 320 269 300 259.2C280 249.3 260 229.7 240 220.7C220 211.7 200 213.3 180 207C160 200.7 140 186.3 120 196.2C100 206 80 240 60 246.3C40 252.7 20 231.3 10 220.7L0 210Z" fill="#0066ff"></path> -->
  <path d="M0 428L10 425.2C20 422.3 40 416.7 60 417.5C80 418.3 100 425.7 120 438.3C140 451 160 469 180 477.2C200 485.3 220 483.7 240 484.5C260 485.3 280 488.7 300 481.3C320 474 340 456 360 452.5C380 449 400 460 420 456.5C440 453 460 435 480 437.7C500 440.3 520 463.7 540 475.3C560 487 580 487 600 474.3C620 461.7 640 436.3 660 436.3C680 436.3 700 461.7 720 460.8C740 460 760 433 780 424.8C800 416.7 820 427.3 840 424.7C860 422 880 406 900 412.3C920 418.7 940 447.3 950 461.7L960 476L960 366L950 356.2C940 346.3 920 326.7 900 322.2C880 317.7 860 328.3 840 327.3C820 326.3 800 313.7 780 301.2C760 288.7 740 276.3 720 262.8C700 249.3 680 234.7 660 233.7C640 232.7 620 245.3 600 246.3C580 247.3 560 236.7 540 244.8C520 253 500 280 480 301.5C460 323 440 339 420 346.2C400 353.3 380 351.7 360 350C340 348.3 320 346.7 300 335.8C280 325 260 305 240 296.8C220 288.7 200 292.3 180 287C160 281.7 140 267.3 120 272.7C100 278 80 303 60 307.5C40 312 20 296 10 288L0 280Z" fill="rgba(120, 122, 237, 0.02)"></path>
  <!-- <path d="M0 541L10 541C20 541 40 541 60 541C80 541 100 541 120 541C140 541 160 541 180 541C200 541 220 541 240 541C260 541 280 541 300 541C320 541 340 541 360 541C380 541 400 541 420 541C440 541 460 541 480 541C500 541 520 541 540 541C560 541 580 541 600 541C620 541 640 541 660 541C680 541 700 541 720 541C740 541 760 541 780 541C800 541 820 541 840 541C860 541 880 541 900 541C920 541 940 541 950 541L960 541L960 474L950 459.7C940 445.3 920 416.7 900 410.3C880 404 860 420 840 422.7C820 425.3 800 414.7 780 422.8C760 431 740 458 720 458.8C700 459.7 680 434.3 660 434.3C640 434.3 620 459.7 600 472.3C580 485 560 485 540 473.3C520 461.7 500 438.3 480 435.7C460 433 440 451 420 454.5C400 458 380 447 360 450.5C340 454 320 472 300 479.3C280 486.7 260 483.3 240 482.5C220 481.7 200 483.3 180 475.2C160 467 140 449 120 436.3C100 423.7 80 416.3 60 415.5C40 414.7 20 420.3 10 423.2L0 426Z" fill="#6198ff"></path> -->
</svg>